  <svg version="1.1"
    id="Capa_1"
    xmlns="http://www.w3.org/2000/svg"
    viewBox="0 0 249.1 245.6"
    width="100"
  >
    <g>
      <path fill="black" d="M59,127c0.1-16.7,4-30.8,12-44.6c3.1-0.4,9,1.4,10.6,4c-5.4,11.4-8.9,24.5-9,40.6c0.1,16.1,3.6,29.3,9,40.6
		c-2.6,2.8-7.2,4.2-10.6,4C63,157.8,59.1,143.8,59,127z"/>
      <path fill='black' d="M164.3,122.4v29.8c-2.5,0.4-5,0.6-7.5,0.6c-2.5,0-5-0.2-7.5-0.6v-26.5c0-5.9-2.8-9-8.4-9c-3.8,0-6.2,1.4-8,2.7
		c0.1,1,0.2,2,0.2,3v29.8c-2.5,0.4-5,0.6-7.5,0.6c-2.5,0-5-0.2-7.4-0.6v-26.5c0-5.9-2.9-9-8.5-9c-3.3,0-5.9,0.9-7.7,2v33.5
		c-2.5,0.4-5,0.6-7.5,0.6s-4.9-0.2-7.4-0.6v-41c3.4-2.9,12.3-7.9,23.9-7.9c6.7,0,11.9,1.7,15.4,4.5c3.8-2.4,9.3-4.5,15.6-4.5
		C157.3,103.3,164.3,111.4,164.3,122.4z"/>
      <path fill='black' d="M170,167.7c5.4-11.4,8.9-24.5,9-40.6c-0.1-16-3.7-29.1-9.2-40.4c2.2-2.9,7.2-4.6,10.8-4.2
		c7.9,13.7,11.8,27.9,11.9,44.6c-0.1,16.7-4,30.8-12,44.6C177.2,171.9,172.6,170.5,170,167.7z"/>
    </g>
  </svg>